<svg xmlns="http://www.w3.org/2000/svg" xmlns:xlink="http://www.w3.org/1999/xlink" width="364" zoomAndPan="magnify" viewBox="0 0 273 225.75" height="301" preserveAspectRatio="xMidYMid meet" version="1.0"><defs><g/><clipPath id="ac4744accf"><path d="M 0.152344 0 L 272.847656 0 L 272.847656 225.5 L 0.152344 225.5 Z M 0.152344 0 " clip-rule="nonzero"/></clipPath><clipPath id="f9b8f1530d"><path d="M 24.28125 0.417969 L 248.660156 0.417969 L 248.660156 224.796875 L 24.28125 224.796875 Z M 24.28125 0.417969 " clip-rule="nonzero"/></clipPath><clipPath id="1873a18284"><path d="M 136.46875 0.417969 C 74.511719 0.417969 24.28125 50.648438 24.28125 112.605469 C 24.28125 174.566406 74.511719 224.796875 136.46875 224.796875 C 198.429688 224.796875 248.660156 174.566406 248.660156 112.605469 C 248.660156 50.648438 198.429688 0.417969 136.46875 0.417969 Z M 136.46875 0.417969 " clip-rule="nonzero"/></clipPath><clipPath id="00eb037735"><path d="M 0.28125 0.417969 L 224.660156 0.417969 L 224.660156 224.796875 L 0.28125 224.796875 Z M 0.28125 0.417969 " clip-rule="nonzero"/></clipPath><clipPath id="a9357ae308"><path d="M 112.46875 0.417969 C 50.511719 0.417969 0.28125 50.648438 0.28125 112.605469 C 0.28125 174.566406 50.511719 224.796875 112.46875 224.796875 C 174.429688 224.796875 224.660156 174.566406 224.660156 112.605469 C 224.660156 50.648438 174.429688 0.417969 112.46875 0.417969 Z M 112.46875 0.417969 " clip-rule="nonzero"/></clipPath><clipPath id="300ea91949"><rect x="0" width="225" y="0" height="225"/></clipPath><clipPath id="2ac74340cb"><rect x="0" width="210" y="0" height="184"/></clipPath></defs><g clip-path="url(#ac4744accf)"><path fill="#ffffff" d="M 0.152344 0 L 272.847656 0 L 272.847656 225.5 L 0.152344 225.5 Z M 0.152344 0 " fill-opacity="1" fill-rule="nonzero"/></g><g clip-path="url(#f9b8f1530d)"><g clip-path="url(#1873a18284)"><g transform="matrix(1, 0, 0, 1, 24, 0.000000000000001249)"><g clip-path="url(#300ea91949)"><g clip-path="url(#00eb037735)"><g clip-path="url(#a9357ae308)"><path fill="#080810" d="M 0.28125 0.417969 L 224.660156 0.417969 L 224.660156 224.796875 L 0.28125 224.796875 Z M 0.28125 0.417969 " fill-opacity="1" fill-rule="nonzero"/></g></g></g></g></g></g><g transform="matrix(1, 0, 0, 1, 32, 19)"><g clip-path="url(#2ac74340cb)"><g fill="#00f5c8" fill-opacity="1"><g transform="translate(1.09129, 142.544154)"><g><path d="M 29.921875 0 L 12.5 0 L 12.5 -96.15625 L 37.359375 -96.15625 L 61.6875 -25.453125 L 63.0625 -25.453125 L 87.265625 -96.15625 L 111.53125 -96.15625 L 111.53125 0 L 93.515625 0 L 93.515625 -63.53125 L 91.875 -63.796875 L 69.640625 0 L 53.796875 0 L 31.5625 -63.796875 L 29.921875 -63.53125 Z M 29.921875 0 "/></g></g></g><g fill="#00f5c8" fill-opacity="1"><g transform="translate(125.178973, 142.544154)"><g><path d="M 42.609375 1.375 C 35.953125 1.375 30.023438 0.554688 24.828125 -1.078125 C 19.628906 -2.722656 15.296875 -4.882812 11.828125 -7.5625 C 8.367188 -10.238281 5.71875 -13.175781 3.875 -16.375 L 14.34375 -29.140625 L 15.984375 -29.140625 C 18.878906 -24.835938 22.550781 -21.414062 27 -18.875 C 31.445312 -16.332031 36.648438 -15.0625 42.609375 -15.0625 C 47.703125 -15.0625 51.539062 -16.132812 54.125 -18.28125 C 56.707031 -20.425781 58 -23.382812 58 -27.15625 C 58 -29.4375 57.582031 -31.34375 56.75 -32.875 C 55.914062 -34.414062 54.535156 -35.734375 52.609375 -36.828125 C 50.679688 -37.921875 48.070312 -38.863281 44.78125 -39.65625 L 32.421875 -42.484375 C 23.785156 -44.453125 17.351562 -47.726562 13.125 -52.3125 C 8.894531 -56.894531 6.78125 -62.847656 6.78125 -70.171875 C 6.78125 -75.609375 8.132812 -80.382812 10.84375 -84.5 C 13.5625 -88.625 17.519531 -91.828125 22.71875 -94.109375 C 27.914062 -96.390625 34.128906 -97.53125 41.359375 -97.53125 C 48.773438 -97.53125 55.125 -96.550781 60.40625 -94.59375 C 65.6875 -92.644531 70.144531 -89.65625 73.78125 -85.625 L 64.390625 -72.734375 L 62.734375 -72.734375 C 60.015625 -75.585938 56.898438 -77.722656 53.390625 -79.140625 C 49.890625 -80.566406 45.878906 -81.28125 41.359375 -81.28125 C 36.148438 -81.28125 32.1875 -80.359375 29.46875 -78.515625 C 26.75 -76.679688 25.390625 -74.140625 25.390625 -70.890625 C 25.390625 -67.867188 26.34375 -65.457031 28.25 -63.65625 C 30.15625 -61.863281 33.453125 -60.460938 38.140625 -59.453125 L 50.765625 -56.828125 C 60.109375 -54.847656 66.882812 -51.5 71.09375 -46.78125 C 75.300781 -42.070312 77.40625 -35.925781 77.40625 -28.34375 C 77.40625 -22.332031 76.109375 -17.101562 73.515625 -12.65625 C 70.929688 -8.207031 67.03125 -4.753906 61.8125 -2.296875 C 56.601562 0.148438 50.203125 1.375 42.609375 1.375 Z M 42.609375 1.375 "/></g></g></g></g></g></svg>